<mxfile host="65bd71144e">
    <diagram id="gq9cAm1NHJqDxN6_ehPv" name="Top Down">
        <mxGraphModel dx="594" dy="512" grid="1" gridSize="10" guides="1" tooltips="1" connect="1" arrows="1" fold="1" page="1" pageScale="1" pageWidth="827" pageHeight="1169" math="0" shadow="0">
            <root>
                <mxCell id="0"/>
                <mxCell id="1" parent="0"/>
                <mxCell id="QHToTn-wivE1UDTsdcEX-3" style="edgeStyle=orthogonalEdgeStyle;html=1;" edge="1" parent="1" source="QHToTn-wivE1UDTsdcEX-2">
                    <mxGeometry relative="1" as="geometry">
                        <mxPoint x="300" y="200" as="targetPoint"/>
                        <Array as="points">
                            <mxPoint x="300" y="150"/>
                            <mxPoint x="300" y="150"/>
                        </Array>
                    </mxGeometry>
                </mxCell>
                <mxCell id="QHToTn-wivE1UDTsdcEX-7" style="edgeStyle=orthogonalEdgeStyle;html=1;jumpStyle=none;rounded=0;" edge="1" parent="1" source="QHToTn-wivE1UDTsdcEX-2" target="QHToTn-wivE1UDTsdcEX-5">
                    <mxGeometry relative="1" as="geometry">
                        <Array as="points">
                            <mxPoint x="300" y="160"/>
                            <mxPoint x="120" y="160"/>
                        </Array>
                    </mxGeometry>
                </mxCell>
                <mxCell id="QHToTn-wivE1UDTsdcEX-9" style="edgeStyle=orthogonalEdgeStyle;rounded=0;jumpStyle=none;html=1;" edge="1" parent="1" source="QHToTn-wivE1UDTsdcEX-2" target="QHToTn-wivE1UDTsdcEX-6">
                    <mxGeometry relative="1" as="geometry">
                        <Array as="points">
                            <mxPoint x="300" y="160"/>
                            <mxPoint x="474" y="160"/>
                        </Array>
                    </mxGeometry>
                </mxCell>
                <mxCell id="QHToTn-wivE1UDTsdcEX-2" value="Circumference&amp;nbsp;" style="rounded=0;whiteSpace=wrap;html=1;" vertex="1" parent="1">
                    <mxGeometry x="240" y="60" width="120" height="60" as="geometry"/>
                </mxCell>
                <mxCell id="QHToTn-wivE1UDTsdcEX-13" style="edgeStyle=orthogonalEdgeStyle;rounded=0;jumpStyle=none;html=1;" edge="1" parent="1" source="QHToTn-wivE1UDTsdcEX-4" target="QHToTn-wivE1UDTsdcEX-12">
                    <mxGeometry relative="1" as="geometry"/>
                </mxCell>
                <mxCell id="QHToTn-wivE1UDTsdcEX-4" value="Process" style="rounded=0;whiteSpace=wrap;html=1;" vertex="1" parent="1">
                    <mxGeometry x="240" y="200" width="120" height="60" as="geometry"/>
                </mxCell>
                <mxCell id="QHToTn-wivE1UDTsdcEX-11" style="edgeStyle=orthogonalEdgeStyle;rounded=0;jumpStyle=none;html=1;" edge="1" parent="1" source="QHToTn-wivE1UDTsdcEX-5" target="QHToTn-wivE1UDTsdcEX-10">
                    <mxGeometry relative="1" as="geometry"/>
                </mxCell>
                <mxCell id="QHToTn-wivE1UDTsdcEX-5" value="Input" style="rounded=0;whiteSpace=wrap;html=1;" vertex="1" parent="1">
                    <mxGeometry x="60" y="200" width="120" height="60" as="geometry"/>
                </mxCell>
                <mxCell id="QHToTn-wivE1UDTsdcEX-15" style="edgeStyle=orthogonalEdgeStyle;rounded=0;jumpStyle=none;html=1;" edge="1" parent="1" source="QHToTn-wivE1UDTsdcEX-6" target="QHToTn-wivE1UDTsdcEX-14">
                    <mxGeometry relative="1" as="geometry"/>
                </mxCell>
                <mxCell id="QHToTn-wivE1UDTsdcEX-6" value="Output" style="rounded=0;whiteSpace=wrap;html=1;" vertex="1" parent="1">
                    <mxGeometry x="414" y="200" width="120" height="60" as="geometry"/>
                </mxCell>
                <mxCell id="QHToTn-wivE1UDTsdcEX-10" value="insert radius" style="rounded=0;whiteSpace=wrap;html=1;" vertex="1" parent="1">
                    <mxGeometry x="60" y="310" width="120" height="60" as="geometry"/>
                </mxCell>
                <mxCell id="QHToTn-wivE1UDTsdcEX-12" value="circumference = tau * radius" style="rounded=0;whiteSpace=wrap;html=1;" vertex="1" parent="1">
                    <mxGeometry x="240" y="310" width="120" height="60" as="geometry"/>
                </mxCell>
                <mxCell id="QHToTn-wivE1UDTsdcEX-14" value="Show the circumference" style="rounded=0;whiteSpace=wrap;html=1;" vertex="1" parent="1">
                    <mxGeometry x="414" y="310" width="120" height="60" as="geometry"/>
                </mxCell>
            </root>
        </mxGraphModel>
    </diagram>
    <diagram id="1uhA6Sc41QZmDB1-XDuW" name="Flowchart">
        <mxGraphModel dx="594" dy="512" grid="1" gridSize="10" guides="1" tooltips="1" connect="1" arrows="1" fold="1" page="1" pageScale="1" pageWidth="827" pageHeight="1169" math="0" shadow="0">
            <root>
                <mxCell id="JmYM2q2YWZ0Guc1FSIsb-0"/>
                <mxCell id="JmYM2q2YWZ0Guc1FSIsb-1" parent="JmYM2q2YWZ0Guc1FSIsb-0"/>
            </root>
        </mxGraphModel>
    </diagram>
</mxfile>